<?xml version="1.0" encoding="utf-8" ?><svg xmlns="http://www.w3.org/2000/svg" xmlns:xlink="http://www.w3.org/1999/xlink" width="512" height="512" viewBox="0 0 512 512"><defs><linearGradient id="gradient_0" gradientUnits="userSpaceOnUse" x1="253.16666" y1="75.967514" x2="258.31653" y2="414.25467"><stop offset="0" stop-color="#FF8885"/><stop offset="1" stop-color="#318FCF"/></linearGradient></defs><path fill="url(#gradient_0)" d="M80.5432 222.421L80.5399 175.436C80.541 165.473 79.9638 154.234 80.8881 144.432C84.0812 110.572 113.367 81.419 147.123 77.9439C154.297 77.2053 161.727 77.5729 168.937 77.5752L339.875 77.5835C350.083 77.5818 360.567 76.9592 370.606 79.0984C399.231 85.1975 422.629 107.493 429.59 135.982C431.616 144.274 431.47 152.755 431.471 161.225L431.461 237.621L431.469 345.475C431.484 365.693 430.24 386.19 416.337 402.409C406.643 417.44 386.2 428.318 368.898 430.527C363.935 431.161 358.802 430.931 353.805 430.931L159.653 430.942C134.314 430.975 111.479 424.801 95.9383 402.409C81.7351 383.807 80.4866 365.004 80.5291 342.776L80.5432 222.421ZM114.967 237.621L138.182 237.601C140.796 237.597 144.529 237.147 146.984 237.621C149.297 237.283 151.31 237.347 153.625 237.621L153.62 191.145C153.619 178.631 149.516 153.269 168.363 152.701C175.368 152.49 182.442 152.744 189.453 152.759L250.573 152.753C254.302 152.753 258.479 152.407 262.152 153.007C279.146 155.781 280.619 181.485 263.753 185.693C258.295 187.054 250.299 186.386 244.514 186.385L212.104 186.377C216.094 191.097 220.658 195.44 224.976 199.868L244.662 220.037C248.445 223.837 252.651 227.548 256.103 231.63C261.61 237.004 266.827 242.755 272.194 248.276L311.659 289.012C316.518 294.025 321.066 299.289 326.093 304.144L326.081 266.479C326.081 257.14 323.209 240.996 335.769 238.146C340.688 237.03 351.106 237.616 356.658 237.615L397.303 237.621L397.303 226.93L397.301 175.129C397.31 156.312 399.683 141.487 385.169 126.927C375.043 116.77 365.35 114.012 351.379 113.952L172.041 113.949C164.23 113.94 155.851 113.318 148.145 114.601C133.469 117.044 120.373 128.175 116.406 142.67C114.055 151.262 114.966 167.012 114.966 176.362L114.967 221.635L114.967 237.621ZM188.352 212C188.361 223.557 188.658 235.195 188.352 246.743C188.798 260.368 183.886 270.081 169.013 270.573C151.029 271.168 132.965 270.381 114.967 270.642L114.959 348.194C114.957 354.022 114.657 360.055 115.967 365.771C119.819 382.581 134.31 395.473 151.52 397.124C160.971 398.03 173.148 397.104 182.911 397.255C193.752 397.25 205.176 396.848 215.959 397.255L357.395 397.255C376.424 396.165 392.466 382.474 396.559 363.869C397.692 358.724 397.336 353.606 397.32 348.389L397.303 269.712L359.307 269.712L359.304 320.608C359.301 327.046 360.128 336.403 359.077 342.467C355.692 361.999 333.722 358.903 319.355 358.881L262.502 358.881C255.02 358.874 248.054 359.785 242.098 354.248C235.048 347.694 234.644 336.433 241.297 329.465C247.937 322.512 256.798 324.011 265.585 324.006C276.317 323.999 287.134 324.329 297.857 324.014C271.677 297.794 242.94 269.457 217.941 242.234C208.666 232.795 197.932 220.368 188.352 212Z"/><path fill="#289BDC" d="M95.9383 402.409L96.2206 401.884C94.1061 398.24 92.2651 394.781 96.1479 400.575L96.2111 401.278C103.753 404.09 113.404 410.11 121.434 408.05C131.026 405.589 133.96 409.051 141.1 409.878C145.406 410.376 149.508 410.888 153.86 410.844C155.661 410.825 157.235 409.588 159.021 409.387C168.176 408.358 172.008 408.898 181.291 406.598C191.161 404.152 193.913 404.139 203.237 406.012C213.201 408.013 225.712 410.362 235.661 410.163C238.075 410.115 250.562 408.525 251.787 410.017L252.003 411.296L252.219 411.293C253.96 408.232 260.62 410.166 264.513 409.906C271.464 409.44 277.315 410.014 283.968 409.806C288.697 409.659 293.143 408.48 297.961 408.675C300.866 408.793 303.443 410.39 306.372 410.488C314.23 410.751 329.205 412.644 335.994 411.92C343.822 411.086 351.043 406.511 359.07 406.894C369.842 407.406 379.991 412.427 389.78 412.456C395.267 412.472 399.901 409.875 405.093 409.218C406.362 409.058 408.071 410.206 409.154 409.615C410.801 408.718 411.92 406.473 413.383 405.264C413.717 403.463 414.547 402.914 416.337 402.409C406.643 417.44 386.2 428.318 368.898 430.527C363.935 431.161 358.802 430.931 353.805 430.931L159.653 430.942C134.314 430.975 111.479 424.801 95.9383 402.409Z"/><path fill="#289BDC" d="M182.911 397.255C193.752 397.25 205.176 396.848 215.959 397.255C217.855 398.067 221.421 397.544 223.566 397.667L217.815 397.849L217.581 398.038C204.37 398.797 194.385 398.178 181.68 397.72L181.846 397.435C182.233 397.434 182.541 397.352 182.911 397.255Z"/></svg>